<svg xmlns="http://www.w3.org/2000/svg" viewBox="0 0 214 432" width="214" height="432"><path fill="currentColor" fill-rule="evenodd" d="M28.53 167.6C29.54 167.64 31.14 169.15 42.23 147.42C46.61 138.83 46.42 137.07 56.71 136.84C95.55 136.64 134.38 136.44 173.22 136.25C118.6 231.57 63.99 326.89 9.37 422.21C18.54 422.13 27.7 422.06 36.87 421.98C39.49 422.04 42.44 417.64 42.59 417.25C95.84 314.29 149.09 211.33 202.34 108.37C203.33 105.57 201.1 103.55 198.15 103.55C149.46 103.6 100.77 103.22 52.09 103.69C47.53 103.73 46.08 104.97 34.18 142.78C30.03 155.94 26.67 167.55 28.53 167.6Z"/></svg>
